<svg width="15" height="15" viewBox="0 0 15 15" fill="none" xmlns="http://www.w3.org/2000/svg">
<path d="M13.9939 3.82901C13.3233 2.65108 12.4135 1.71851 11.2645 1.03109C10.1153 0.343639 8.86077 0 7.49993 0C6.13926 0 4.88429 0.343744 3.73534 1.03109C2.58623 1.71847 1.67654 2.65108 1.00587 3.82901C0.335301 5.0069 0 6.29317 0 7.68778C0 9.36302 0.476803 10.8694 1.43065 12.2074C2.38439 13.5455 3.61649 14.4714 5.12683 14.9853C5.30264 15.0187 5.43278 14.9952 5.5174 14.9153C5.60206 14.8353 5.64433 14.7351 5.64433 14.6151C5.64433 14.5951 5.64266 14.4149 5.63941 14.0745C5.63606 13.7341 5.63448 13.4371 5.63448 13.1838L5.40987 13.2236C5.26665 13.2505 5.08599 13.2619 4.86787 13.2586C4.64985 13.2555 4.42353 13.2321 4.1892 13.1886C3.95476 13.1454 3.73671 13.0453 3.53487 12.8885C3.33314 12.7316 3.18993 12.5264 3.10527 12.2729L3.00762 12.0426C2.94253 11.8892 2.84006 11.7188 2.70006 11.5321C2.56006 11.3452 2.41849 11.2185 2.27528 11.1518L2.20691 11.1016C2.16135 11.0682 2.11907 11.028 2.07998 10.9814C2.04091 10.9347 2.01167 10.888 1.99214 10.8412C1.97258 10.7944 1.98879 10.756 2.04095 10.7259C2.09311 10.6958 2.18738 10.6812 2.32416 10.6812L2.51939 10.7111C2.64961 10.7378 2.81067 10.8177 3.0028 10.9513C3.19482 11.0847 3.35267 11.2582 3.47639 11.4717C3.6262 11.7454 3.80669 11.9539 4.01838 12.0974C4.2299 12.2409 4.44316 12.3125 4.65796 12.3125C4.87276 12.3125 5.05828 12.2959 5.2146 12.2627C5.37074 12.2293 5.51723 12.1791 5.65401 12.1124C5.7126 11.6651 5.87213 11.3215 6.13246 11.0813C5.76141 11.0413 5.42782 10.9811 5.13151 10.901C4.83538 10.8209 4.52935 10.6908 4.21365 10.5105C3.89778 10.3303 3.63574 10.1067 3.42747 9.83986C3.21917 9.5729 3.04822 9.22243 2.91486 8.78875C2.78143 8.3549 2.7147 7.85443 2.7147 7.2872C2.7147 6.47956 2.97191 5.79228 3.48624 5.22498C3.2453 4.61779 3.26805 3.9371 3.55454 3.183C3.74335 3.12287 4.02334 3.16799 4.39439 3.31809C4.7655 3.46826 5.03721 3.5969 5.20981 3.70356C5.3824 3.81018 5.52069 3.90053 5.62487 3.97381C6.23045 3.80036 6.85539 3.71362 7.49986 3.71362C8.14433 3.71362 8.76941 3.80036 9.37503 3.97381L9.7461 3.73367C9.99986 3.57344 10.2995 3.42661 10.6444 3.29313C10.9894 3.15972 11.2533 3.12297 11.4356 3.1831C11.7285 3.93724 11.7546 4.61789 11.5136 5.22509C12.0279 5.79239 12.2852 6.47984 12.2852 7.28731C12.2852 7.85453 12.2182 8.35658 12.085 8.79376C11.9516 9.23102 11.7792 9.58114 11.5677 9.84488C11.3559 10.1086 11.0922 10.3305 10.7765 10.5106C10.4607 10.6908 10.1546 10.8209 9.85847 10.901C9.56219 10.9812 9.2286 11.0414 8.85756 11.0814C9.19597 11.3816 9.36521 11.8555 9.36521 12.5028V14.6148C9.36521 14.7348 9.40591 14.8349 9.48739 14.915C9.56876 14.9949 9.69726 15.0184 9.87307 14.9849C11.3836 14.4712 12.6157 13.5452 13.5694 12.2072C14.523 10.8692 15 9.36274 15 7.6875C14.9997 6.29307 14.6642 5.0069 13.9939 3.82901Z" fill="white"/>
</svg>
