<svg width="18" height="14" viewBox="0 0 18 14" fill="none" xmlns="http://www.w3.org/2000/svg">
<path d="M18 2.06318H17.2881C17.0238 2.06318 16.65 2.43779 16.65 2.67756V11.3695C16.65 11.6095 17.0238 11.9368 17.2881 11.9368H18V14H11.55V11.9368H12.9V2.79997H12.8339L9.68133 14H7.24064L4.12875 2.79997H4.05V11.9368H5.4V14H0V11.9368H0.691523C0.976219 11.9368 1.35 11.6095 1.35 11.3695V2.6775C1.35 2.43772 0.976219 2.06311 0.691523 2.06311H0V0H6.75239L8.96934 8.10523H9.03052L11.2678 0H18V2.06318Z" fill="white"/>
</svg>
