<svg width="16" height="12" viewBox="0 0 16 12" fill="none" xmlns="http://www.w3.org/2000/svg">
<path d="M16 1.41979C15.4111 1.66072 14.7792 1.82412 14.1153 1.89707C14.7932 1.52226 15.3121 0.927762 15.5581 0.221549C14.9222 0.568645 14.2203 0.820681 13.4724 0.957308C12.8736 0.367421 12.0217 0 11.0769 0C9.26422 0 7.7945 1.35703 7.7945 3.02977C7.7945 3.26701 7.82349 3.49872 7.87949 3.72029C5.15201 3.5938 2.73347 2.38726 1.11477 0.553871C0.831818 1.00069 0.670851 1.52132 0.670851 2.07707C0.670851 3.12855 1.25075 4.05631 2.13059 4.5991C1.59268 4.58249 1.08677 4.44587 0.64387 4.21876V4.25661C0.64387 5.72442 1.77566 6.94943 3.27637 7.22823C3.00142 7.29655 2.71148 7.3344 2.41153 7.3344C2.19959 7.3344 1.99462 7.31501 1.79365 7.27808C2.21156 8.48279 3.42335 9.35885 4.85909 9.38286C3.73629 10.1952 2.32055 10.678 0.782851 10.678C0.517909 10.678 0.256942 10.6633 0 10.6365C1.45273 11.4978 3.17742 12 5.03107 12C11.0689 12 14.3693 7.38241 14.3693 3.37781L14.3583 2.98547C15.0032 2.5608 15.5611 2.02722 16 1.41979Z" fill="white"/>
</svg>
